<svg id="Layer_1" data-name="Layer 1" xmlns="http://www.w3.org/2000/svg" viewBox="0 0 927.68 988.33"><defs><style>.cls-1{fill:#f4191d;}.cls-2{fill:#b04d0f;}.cls-3{fill:#ef7d3a;}.cls-4{fill:#2551a2;}</style></defs><title>mario2</title><rect class="cls-1" x="307.23" width="309.61" height="63.91"/><rect class="cls-1" x="244.74" y="63.91" width="559.57" height="61.07"/><rect class="cls-2" x="244.74" y="124.98" width="187.01" height="58.34"/><rect class="cls-2" x="307.23" y="245.46" width="124.52" height="63.91"/><rect class="cls-2" x="307.23" y="183.32" width="62.26" height="62.26"/><rect class="cls-2" x="182.61" y="183.32" width="62.13" height="188.18"/><rect class="cls-2" x="243.19" y="307.59" width="63.91" height="63.91"/><rect class="cls-2" x="554.93" y="124.98" width="63.69" height="126.03"/><rect class="cls-2" x="554.93" y="314.69" width="250.31" height="56.81"/><rect class="cls-2" x="618.62" y="245.58" width="69.12" height="69.12"/><rect class="cls-3" x="431.75" y="124.98" width="123.19" height="310.82"/><rect class="cls-3" x="554.93" y="251.01" width="63.69" height="63.69"/><rect class="cls-3" x="554.93" y="371.5" width="185.98" height="64.29"/><rect class="cls-3" x="618.62" y="124.98" width="69.12" height="120.6"/><rect class="cls-3" x="687.73" y="245.58" width="117.51" height="69.12"/><rect class="cls-3" x="687.73" y="185.28" width="117.51" height="60.3"/><rect class="cls-3" x="804.31" y="246.93" width="60.66" height="60.66"/><rect class="cls-3" x="244.74" y="183.32" width="62.49" height="126.05"/><rect class="cls-3" x="369.49" y="183.32" width="62.26" height="62.14"/><rect class="cls-3" x="307.23" y="309.37" width="124.52" height="126.43"/><rect class="cls-4" x="369.49" y="435.8" width="62.26" height="365.97"/><rect class="cls-4" x="431.75" y="435.8" width="64.73" height="117.38"/><rect class="cls-4" x="493.34" y="489.2" width="63.82" height="312.05"/><rect class="cls-4" x="554.93" y="548.81" width="127.77" height="313.01"/><rect class="cls-4" x="680.09" y="675.08" width="66.4" height="186.74"/><rect class="cls-4" x="431.75" y="616.2" width="61.59" height="185.06"/><rect class="cls-4" x="244.74" y="616.2" width="124.75" height="245.62"/><rect class="cls-4" x="182.61" y="677.8" width="62.13" height="184.02"/><rect class="cls-4" x="119.85" y="739.01" width="62.76" height="62.76"/><rect class="cls-1" x="119.85" y="428.15" width="249.64" height="125.02"/><rect class="cls-1" x="243.19" y="553.17" width="126.3" height="63.02"/><rect class="cls-1" x="496.48" y="435.8" width="122.34" height="54.86"/><rect class="cls-1" x="554.93" y="490.66" width="191.55" height="58.15"/><rect class="cls-1" x="682.7" y="548.81" width="122.54" height="67.39"/><rect class="cls-3" y="490.66" width="119.85" height="184.41"/><rect class="cls-3" x="119.58" y="553.17" width="63.02" height="63.02"/><rect class="cls-3" x="431.75" y="553.17" width="61.59" height="63.02"/><rect class="cls-3" x="746.49" y="490.66" width="181.19" height="58.15"/><rect class="cls-3" x="804.31" y="548.81" width="123.37" height="67.39"/><rect class="cls-2" x="746.49" y="675.08" width="119.51" height="186.74"/><rect class="cls-2" x="805.24" y="616.2" width="60.76" height="58.88"/><rect class="cls-2" x="59.93" y="801.26" width="122.68" height="122.68"/><rect class="cls-2" x="121.27" y="923.94" width="185.97" height="64.39"/><rect class="cls-2" x="182.62" y="861.82" width="62.12" height="62.12"/></svg>