<svg id="Layer_1" data-name="Layer 1" xmlns="http://www.w3.org/2000/svg" viewBox="0 0 682.37 986.73"><defs><style>.cls-1{fill:#f4191d;}.cls-2{fill:#b04d0f;}.cls-3{fill:#ef7d3a;}.cls-4{fill:#2551a2;}</style></defs><title>mario3</title><rect class="cls-1" x="124.62" width="309.61" height="63.91"/><rect class="cls-1" x="62.13" y="63.91" width="559.57" height="61.07"/><rect class="cls-2" x="62.13" y="124.98" width="187.01" height="58.34"/><rect class="cls-2" x="124.62" y="245.46" width="124.52" height="63.91"/><rect class="cls-2" x="124.62" y="183.32" width="62.26" height="62.26"/><rect class="cls-2" y="183.32" width="62.13" height="188.18"/><rect class="cls-2" x="60.58" y="307.59" width="63.91" height="63.91"/><rect class="cls-2" x="372.33" y="124.98" width="63.69" height="126.03"/><rect class="cls-2" x="372.33" y="314.69" width="250.31" height="56.81"/><rect class="cls-2" x="436.01" y="245.58" width="69.12" height="69.12"/><rect class="cls-3" x="249.14" y="124.98" width="123.19" height="310.82"/><rect class="cls-3" x="372.33" y="251.01" width="63.69" height="63.69"/><rect class="cls-3" x="372.33" y="371.5" width="185.98" height="64.29"/><rect class="cls-3" x="436.01" y="124.98" width="69.12" height="120.6"/><rect class="cls-3" x="505.13" y="245.58" width="117.51" height="69.12"/><rect class="cls-3" x="505.13" y="185.28" width="117.51" height="60.3"/><rect class="cls-3" x="621.71" y="246.93" width="60.66" height="60.66"/><rect class="cls-3" x="62.13" y="183.32" width="62.49" height="126.05"/><rect class="cls-3" x="186.88" y="183.32" width="62.26" height="62.14"/><rect class="cls-3" x="124.62" y="309.37" width="124.52" height="126.43"/><rect class="cls-1" x="67.7" y="430" width="313.36" height="63.92"/><rect class="cls-1" x="5.09" y="488.42" width="187.62" height="187.62"/><rect class="cls-1" x="132.54" y="676.04" width="60.17" height="127.71"/><rect class="cls-1" x="67.7" y="676.04" width="64.84" height="64.84"/><rect class="cls-1" x="316.63" y="488.42" width="125.27" height="64.79"/><rect class="cls-4" x="192.71" y="493.92" width="64.48" height="182.12"/><rect class="cls-4" x="257.18" y="493.92" width="59.44" height="59.29"/><rect class="cls-4" x="257.18" y="615.09" width="247.94" height="60.95"/><rect class="cls-4" x="316.63" y="553.21" width="125.27" height="68.61"/><rect class="cls-4" x="316.63" y="676.04" width="125.27" height="125.27"/><rect class="cls-4" x="441.89" y="676.04" width="63.24" height="62.63"/><rect class="cls-4" x="257.18" y="740.88" width="59.44" height="60.43"/><rect class="cls-4" x="5.09" y="676.04" width="62.61" height="64.84"/><rect class="cls-4" x="67.7" y="740.88" width="64.84" height="62.87"/><rect class="cls-4" x="132.54" y="803.75" width="124.65" height="59.6"/><rect class="cls-2" x="132.54" y="863.35" width="372.59" height="62.81"/><rect class="cls-2" x="255.94" y="801.31" width="185.95" height="62.04"/><rect class="cls-2" x="132.54" y="926.16" width="186.3" height="60.57"/><rect class="cls-3" x="192.71" y="676.04" width="64.48" height="127.71"/><rect class="cls-3" x="257.18" y="676.04" width="59.44" height="64.84"/><rect class="cls-3" x="257.18" y="553.21" width="61.65" height="61.65"/><rect class="cls-3" x="441.89" y="553.21" width="63.24" height="63.24"/></svg>